<svg version="1.1" id="Layer_1" xmlns="http://www.w3.org/2000/svg" xmlns:xlink="http://www.w3.org/1999/xlink" x="0px" y="0px"
	 width="100%" viewBox="0 0 206 206" enable-background="new 0 0 206 206" xml:space="preserve">
<path fill="#2E2C2D" opacity="1.000000" stroke="none" 
	d="
M207.000000,2.000000 
	C207.000000,70.260368 207.000000,138.520737 207.000000,207.000000 
	C138.979263,207.000000 70.958290,207.000000 2.486826,206.740067 
	C2.046614,206.306717 2.056892,206.133316 2.529033,205.975128 
	C68.450706,205.993347 133.910507,205.997955 199.370316,205.996841 
	C205.980865,205.996719 205.997803,205.980667 205.997864,199.369461 
	C205.998337,133.909653 205.992767,68.449829 205.986084,2.759824 
	C205.983261,2.529633 205.949158,2.070481 206.211670,2.049979 
	C206.649475,2.019652 206.824738,2.009826 207.000000,2.000000 
z"/>
<path fill="#474546" opacity="1.000000" stroke="none" 
	d="
M2.067170,205.959900 
	C2.056892,206.133316 2.046614,206.306717 2.018169,206.740067 
	C1.666669,206.501999 1.041643,206.004181 1.041323,205.505966 
	C0.997853,137.835327 0.997851,70.164658 1.041321,2.494017 
	C1.041641,1.995806 1.666667,1.497997 2.489644,1.191340 
	C2.979288,1.382680 2.955599,1.765187 2.962534,1.835827 
	C2.969469,1.906466 3.000313,2.045033 2.783420,2.131967 
	C2.292299,2.400140 2.118411,2.650952 2.031615,3.441627 
	C2.034635,71.261246 2.050902,138.610565 2.067170,205.959900 
z"/>
<path fill="#484647" opacity="1.000000" stroke="none" 
	d="
M2.955599,1.765187 
	C2.955599,1.765187 2.979288,1.382680 2.989644,1.191340 
	C71.000000,1.000000 139.000000,1.000000 207.000000,1.500000 
	C206.824738,2.009826 206.649475,2.019652 205.985077,2.037684 
	C205.495972,2.045891 205.042557,2.076422 204.572083,2.046178 
	C168.048676,2.040348 131.995773,2.064763 95.629150,2.067564 
	C94.896820,2.060330 94.478188,2.074712 93.588074,2.057924 
	C89.297295,2.010172 85.478020,1.988359 81.658714,1.977847 
	C55.424347,1.905637 29.189970,1.835793 2.955599,1.765187 
z"/>
<path fill="#1F1D1E" opacity="1.000000" stroke="none" 
	d="
M2.962534,1.835827 
	C29.189970,1.835793 55.424347,1.905637 81.658714,1.977847 
	C85.478020,1.988359 89.297295,2.010172 93.750961,2.207419 
	C94.904510,2.288447 95.423683,2.188812 95.942856,2.089178 
	C131.995773,2.064763 168.048676,2.040348 204.704727,2.222234 
	C205.506134,2.650560 205.733154,2.837720 205.988922,2.990015 
	C205.992767,68.449829 205.998337,133.909653 205.997864,199.369461 
	C205.997803,205.980667 205.980865,205.996719 199.370316,205.996841 
	C133.910507,205.997955 68.450706,205.993347 2.529033,205.975128 
	C2.050902,138.610565 2.034635,71.261246 2.214127,3.312958 
	C2.640026,2.520430 2.836835,2.297442 3.000313,2.045033 
	C3.000313,2.045033 2.969469,1.906466 2.962534,1.835827 
M140.794388,140.234238 
	C141.525467,140.172989 142.256561,140.111740 143.495911,140.375534 
	C145.035126,139.629959 146.574341,138.884384 148.559555,138.085678 
	C148.559555,138.085678 149.008377,138.044708 149.729935,138.039108 
	C150.828430,137.665787 151.926926,137.292450 153.707993,136.891052 
	C154.786087,136.563797 155.864197,136.236542 157.543549,135.808716 
	C158.069534,135.243835 158.595520,134.678970 159.742401,134.090256 
	C160.154602,134.049988 160.566788,134.009720 161.646530,133.949539 
	C162.430389,133.597061 163.214249,133.244583 164.642365,132.763000 
	C166.105591,131.861374 167.568817,130.959747 169.835083,130.044769 
	C173.139252,129.104355 176.443420,128.163940 179.747589,127.223534 
	C179.636826,126.704140 179.526077,126.184753 179.415329,125.665367 
	C178.277344,125.100067 177.139359,124.534775 176.129745,123.273712 
	C175.835480,121.921745 175.541214,120.569778 175.246948,119.217812 
	C174.160461,120.165939 173.073959,121.114059 171.235306,122.035637 
	C170.483414,121.989647 169.731537,121.943657 169.033813,121.175316 
	C171.316849,118.333145 173.599884,115.490967 176.113480,112.361755 
	C173.396118,112.575417 170.687698,112.788376 167.589371,112.549339 
	C167.286041,111.992950 166.584579,111.117165 166.737396,110.926689 
	C171.020935,105.587242 172.910538,99.693413 171.382980,92.851250 
	C171.223373,92.136292 171.754913,91.252983 172.009247,90.461754 
	C175.390747,79.941559 175.503448,69.420547 173.490433,58.507450 
	C169.021088,34.277992 153.846466,19.577290 131.992798,10.966229 
	C116.613884,4.906430 100.603157,4.193138 84.515678,8.392962 
	C69.340645,12.354583 56.283379,19.686993 46.328690,32.151241 
	C37.111004,43.692692 33.263634,57.068611 33.203468,71.473389 
	C33.177711,77.640121 35.039169,83.814735 36.066479,90.751884 
	C36.809196,97.952652 34.695965,105.990593 42.249752,110.945908 
	C41.531326,112.191200 40.985546,113.137245 40.742130,113.559174 
	C42.418854,115.676094 43.757622,117.366333 44.570431,119.532028 
	C41.721611,120.688316 38.872787,121.844604 35.269192,123.041336 
	C33.172016,123.925117 31.074839,124.808907 28.977663,125.692688 
	C29.044996,126.310753 29.112329,126.928810 29.179665,127.546875 
	C31.449928,128.042877 33.720196,128.538864 36.503132,129.503647 
	C43.338867,131.999466 50.174603,134.495285 57.421947,137.387344 
	C57.961460,137.551178 58.500977,137.715012 59.546131,138.380783 
	C63.364555,139.595078 67.182976,140.809372 70.868950,142.722076 
	C68.253944,148.385818 65.231117,149.724854 59.379906,148.514313 
	C57.831196,148.193893 55.984455,149.314011 54.274563,149.772690 
	C55.775883,154.742905 57.233353,159.727020 58.804417,164.675095 
	C59.295448,166.221619 60.672878,167.680115 60.649212,169.162994 
	C60.549648,175.401520 64.794662,179.432693 71.006821,178.843597 
	C72.668060,178.686050 74.397041,179.242874 76.057793,180.038055 
	C75.542015,181.036270 75.026237,182.034485 73.729942,183.092270 
	C72.145103,183.967224 70.472809,184.715668 68.991249,185.740005 
	C63.821434,189.314346 58.824913,193.150528 53.547596,196.553925 
	C50.473461,198.536469 46.989700,199.883850 43.690239,201.517014 
	C43.806538,201.844742 43.922832,202.172485 44.039131,202.500214 
	C84.056541,202.500214 124.073944,202.500214 164.091354,202.500214 
	C164.190765,202.190735 164.290176,201.881256 164.389587,201.571777 
	C161.595032,199.718185 158.800476,197.864609 156.684311,195.956268 
	C157.783127,195.289413 158.881927,194.622559 160.615677,193.717651 
	C170.492508,187.699646 175.038345,174.022110 169.944061,165.512817 
	C168.257553,162.695709 166.280624,161.649078 163.342270,164.796707 
	C161.223373,162.534210 159.104492,160.271713 156.759964,157.342407 
	C155.618195,154.573318 154.476410,151.804230 152.941940,148.082809 
	C147.412354,149.705185 140.412964,151.477539 138.557404,141.916885 
	C139.062500,141.402512 139.567581,140.888153 140.794388,140.234238 
z"/>
<path fill="#191718" opacity="1.000000" stroke="none" 
	d="
M205.986084,2.759824 
	C205.733154,2.837720 205.506134,2.650560 205.175201,2.252478 
	C205.042557,2.076422 205.495972,2.045891 205.722565,2.058186 
	C205.949158,2.070481 205.983261,2.529633 205.986084,2.759824 
z"/>
<path fill="#191719" opacity="1.000000" stroke="none" 
	d="
M2.783420,2.131967 
	C2.836835,2.297442 2.640026,2.520430 2.227375,2.842668 
	C2.118411,2.650952 2.292299,2.400140 2.783420,2.131967 
z"/>
<path fill="#191719" opacity="1.000000" stroke="none" 
	d="
M95.629150,2.067563 
	C95.423683,2.188812 94.904510,2.288447 94.222443,2.238588 
	C94.478188,2.074712 94.896820,2.060330 95.629150,2.067563 
z"/>
<path fill="#020102" opacity="1.000000" stroke="none" 
	d="
M74.510460,183.032715 
	C75.026237,182.034485 75.542015,181.036270 76.327553,179.452484 
	C76.836555,177.898682 77.075798,176.930450 77.340424,175.862183 
	C77.365799,175.762146 77.344719,175.556854 77.684738,175.414062 
	C82.504150,167.342056 83.666985,158.887314 82.297104,149.813461 
	C83.047073,148.728043 83.530846,147.818207 84.368202,146.972290 
	C86.899895,147.965515 89.077988,148.894836 90.998222,150.048843 
	C90.309944,151.272736 89.879524,152.271957 89.449112,153.271179 
	C89.890900,153.519745 90.332695,153.768326 90.774483,154.016907 
	C91.538406,152.911621 92.302330,151.806351 93.422791,150.737762 
	C94.480469,150.910202 95.181618,151.045975 96.096199,151.438705 
	C96.998558,152.157364 97.636032,152.738800 98.385048,153.060654 
	C102.292419,154.739594 103.766998,157.037445 101.243820,161.158493 
	C100.064293,163.084976 99.516518,165.479568 99.032745,167.737076 
	C96.554146,179.303314 97.822411,190.113098 106.479179,199.574554 
	C89.235954,199.574554 72.656319,199.574554 57.263386,199.574554 
	C62.764782,194.298111 68.637627,188.665405 74.510460,183.032715 
z"/>
<path fill="#383331" opacity="1.000000" stroke="none" 
	d="
M36.043125,89.985764 
	C35.039169,83.814735 33.177711,77.640121 33.203468,71.473389 
	C33.263634,57.068611 37.111004,43.692692 46.328690,32.151241 
	C56.283379,19.686993 69.340645,12.354583 84.515678,8.392962 
	C100.603157,4.193138 116.613884,4.906430 131.992798,10.966229 
	C153.846466,19.577290 169.021088,34.277992 173.490433,58.507450 
	C175.503448,69.420547 175.390747,79.941559 172.009247,90.461754 
	C171.754913,91.252983 171.223373,92.136292 171.382980,92.851250 
	C172.910538,99.693413 171.020935,105.587242 166.737396,110.926689 
	C166.584579,111.117165 167.286041,111.992950 167.683929,113.105499 
	C166.108795,114.766838 164.439087,115.872017 162.546295,117.124863 
	C162.992905,118.270630 163.504059,119.581993 163.620392,120.925217 
	C162.173294,120.946808 161.121063,120.936546 159.876221,120.640945 
	C157.442978,119.862610 155.202347,119.369621 152.987335,118.504158 
	C154.916946,114.932785 156.987900,111.820099 158.692795,108.518394 
	C163.331345,99.535286 166.063705,90.028931 166.022324,79.829552 
	C166.004013,75.315231 166.019241,70.800774 166.019241,66.286377 
	C166.762451,66.268997 167.505661,66.251625 168.248871,66.234245 
	C168.567169,73.488586 168.885452,80.742928 169.197189,87.848045 
	C169.205612,87.842766 169.632233,87.731468 169.698776,87.511345 
	C176.894302,63.703365 168.430084,37.799610 148.095764,23.110186 
	C125.156487,6.538935 100.163818,4.362931 74.332130,14.977304 
	C53.111053,23.697159 39.563499,39.506252 36.809509,62.717297 
	C35.792141,71.291832 37.537781,80.194199 37.821320,89.151596 
	C37.093967,89.566025 36.568546,89.775894 36.043125,89.985764 
M168.962540,95.030434 
	C168.537720,94.643799 168.112885,94.257164 167.688065,93.870529 
	C165.944565,98.917801 164.201065,103.965073 162.047577,110.199211 
	C168.386963,105.270950 169.518555,102.629227 168.962540,95.030434 
z"/>
<path fill="#353130" opacity="1.000000" stroke="none" 
	d="
M74.120201,183.062500 
	C68.637627,188.665405 62.764782,194.298111 57.263386,199.574554 
	C72.656319,199.574554 89.235954,199.574554 106.479179,199.574554 
	C97.822411,190.113098 96.554146,179.303314 99.032745,167.737076 
	C99.516518,165.479568 100.064293,163.084976 101.243820,161.158493 
	C103.766998,157.037445 102.292419,154.739594 98.385048,153.060654 
	C97.636032,152.738800 96.998558,152.157364 96.216324,151.071350 
	C96.742714,148.810425 97.362419,147.173828 98.266815,145.716980 
	C99.129257,145.788147 99.707016,145.679565 100.554413,145.649628 
	C101.521118,149.774414 104.840942,150.212921 108.178558,151.162796 
	C108.614174,152.006393 108.836723,152.607239 108.862900,153.484070 
	C108.006371,155.156113 107.346207,156.552200 106.581116,158.150452 
	C106.264175,158.748383 106.052155,159.144119 105.501724,159.686829 
	C98.795433,168.926758 99.000702,186.376358 106.141953,194.502533 
	C108.358345,197.024612 112.026749,199.594040 115.154266,199.756470 
	C126.923927,200.367752 138.745071,200.033096 150.545441,199.909409 
	C151.365616,199.900818 152.173523,198.722076 153.150604,197.810669 
	C154.211349,197.026245 155.108643,196.518631 156.005920,196.011017 
	C158.800476,197.864609 161.595032,199.718185 164.389587,201.571777 
	C164.290176,201.881256 164.190765,202.190735 164.091354,202.500214 
	C124.073944,202.500214 84.056541,202.500214 44.039131,202.500214 
	C43.922832,202.172485 43.806538,201.844742 43.690239,201.517014 
	C46.989700,199.883850 50.473461,198.536469 53.547596,196.553925 
	C58.824913,193.150528 63.821434,189.314346 68.991249,185.740005 
	C70.472809,184.715668 72.145103,183.967224 74.120201,183.062500 
z"/>
<path fill="#373331" opacity="1.000000" stroke="none" 
	d="
M77.315033,175.962204 
	C77.075798,176.930450 76.836555,177.898682 76.346115,179.169342 
	C74.397041,179.242874 72.668060,178.686050 71.006821,178.843597 
	C64.794662,179.432693 60.549648,175.401520 60.649212,169.162994 
	C60.672878,167.680115 59.295448,166.221619 58.804417,164.675095 
	C57.233353,159.727020 55.775883,154.742905 54.274563,149.772690 
	C55.984455,149.314011 57.831196,148.193893 59.379906,148.514313 
	C65.231117,149.724854 68.253944,148.385818 70.935287,142.296341 
	C71.001625,141.870605 71.011986,141.717926 71.383423,141.782806 
	C72.503990,141.860291 73.253120,141.872894 74.002335,142.155579 
	C74.001358,142.605698 74.000320,142.785751 73.740570,143.196747 
	C71.834656,145.979507 70.187454,148.531311 68.183464,151.635834 
	C70.853127,153.593582 73.648247,155.643326 77.209587,158.254974 
	C78.375954,154.170975 79.300705,150.932953 80.251694,147.603058 
	C80.877716,148.442581 81.454308,149.215820 82.030907,149.989059 
	C83.666985,158.887314 82.504150,167.342056 77.560783,174.906311 
	C76.978607,173.868607 76.860405,173.195877 76.546234,172.274918 
	C75.108269,170.087799 73.866257,168.148911 72.996490,166.096375 
	C76.742622,164.459122 76.884705,161.683807 74.752724,159.547729 
	C70.133514,154.919662 64.421967,152.137009 56.106239,151.124222 
	C59.190792,156.562637 61.611362,160.830353 63.966805,165.467987 
	C62.355865,174.417114 65.345978,177.251434 74.707367,175.676880 
	C75.920341,175.828690 76.617691,175.895447 77.315033,175.962204 
z"/>
<path fill="#353030" opacity="1.000000" stroke="none" 
	d="
M138.009766,142.072266 
	C140.412964,151.477539 147.412354,149.705185 152.941940,148.082809 
	C154.476410,151.804230 155.618195,154.573318 156.522720,157.657959 
	C154.856369,157.317078 153.427277,156.660645 151.995758,155.602539 
	C152.160828,151.962402 150.912552,150.089828 147.594162,151.727890 
	C143.026825,153.982468 138.547073,156.472656 134.263779,159.225922 
	C130.922134,161.373886 131.904785,163.520493 135.025696,165.336853 
	C134.995895,165.579346 134.921036,166.062195 134.640839,166.193604 
	C133.575531,167.211166 132.790405,168.097305 132.011642,169.370483 
	C133.759750,173.774033 135.618607,177.745316 137.192902,181.826385 
	C137.958878,183.811996 138.193085,186.002747 138.366074,187.996521 
	C127.844528,176.790909 124.608475,163.711624 127.267944,148.830582 
	C127.931580,148.251358 128.383377,147.864273 128.636002,147.647827 
	C129.569580,151.047775 130.471176,154.331177 131.546143,158.245972 
	C135.221756,155.552170 138.037842,153.488297 140.393631,151.761765 
	C138.645767,148.476395 137.244003,145.841537 136.054260,142.966553 
	C136.830765,142.447144 137.395203,142.167877 137.972046,141.934570 
	C137.984467,141.980499 138.009766,142.072266 138.009766,142.072266 
z"/>
<path fill="#4A3636" opacity="1.000000" stroke="none" 
	d="
M138.668015,188.100632 
	C138.193085,186.002747 137.958878,183.811996 137.192902,181.826385 
	C135.618607,177.745316 133.759750,173.774033 132.357666,169.345428 
	C133.438553,167.976273 134.179794,167.019241 134.921036,166.062195 
	C134.921036,166.062195 134.995895,165.579346 135.210205,165.553467 
	C138.811111,170.193741 137.744446,164.164963 139.372208,163.942474 
	C140.068771,163.628662 140.508667,163.363068 141.273148,163.031586 
	C142.403915,162.276535 143.210098,161.587372 144.012436,160.700562 
	C144.008606,160.502930 144.005539,160.107590 144.364349,160.072327 
	C147.148178,158.692764 149.573166,157.348495 151.998169,156.004227 
	C153.427277,156.660645 154.856369,157.317078 156.635529,157.991364 
	C159.104492,160.271713 161.223373,162.534210 163.868820,165.064911 
	C164.616562,165.614944 164.837769,165.896790 164.974777,166.412537 
	C164.657486,166.923553 164.360703,167.044571 163.631104,166.985077 
	C160.631500,165.191620 158.080246,163.283737 155.334091,161.717606 
	C154.128738,161.030167 152.526047,161.039444 150.712708,160.785339 
	C148.395950,161.901230 145.847000,162.500793 144.652557,164.107376 
	C139.519852,171.011063 138.736099,178.914551 141.189285,186.955551 
	C141.782150,188.898773 144.335953,190.243729 146.305206,192.104584 
	C149.419159,192.835602 152.215881,193.325836 155.273254,193.822983 
	C155.790298,193.615143 156.046707,193.400406 156.246735,193.199692 
	C156.190369,193.213715 156.231995,193.322189 156.563965,193.270020 
	C157.918747,192.775497 158.941544,192.333176 159.968933,192.235229 
	C159.975937,193.038330 159.978348,193.497025 159.980743,193.955719 
	C158.881927,194.622559 157.783127,195.289413 156.345123,195.983643 
	C155.108643,196.518631 154.211349,197.026245 152.779724,197.713898 
	C146.089203,196.889862 141.074600,194.303116 138.668015,188.100632 
z"/>
<path fill="#3C312E" opacity="1.000000" stroke="none" 
	d="
M36.054802,90.368820 
	C36.568546,89.775894 37.093967,89.566025 38.060425,89.257263 
	C39.335567,89.107086 40.169670,89.055809 41.021965,89.389740 
	C41.073170,90.288170 41.106178,90.801399 40.974342,91.646790 
	C37.492306,97.946587 38.171684,102.646568 43.211296,108.646683 
	C43.227222,108.808838 43.524395,109.153015 43.524395,109.153015 
	C43.524395,109.153015 43.985325,109.151825 44.314148,109.133545 
	C44.961914,108.815193 45.280853,108.515121 45.928925,108.560684 
	C48.463505,109.049767 50.668945,109.193214 53.158272,109.546822 
	C54.338394,111.163612 55.234631,112.570244 55.770267,114.114182 
	C54.942646,114.832329 54.475628,115.413177 53.726326,116.096497 
	C50.661488,117.151512 47.878937,118.104042 45.096390,119.056580 
	C43.757622,117.366333 42.418854,115.676094 40.742130,113.559174 
	C40.985546,113.137245 41.531326,112.191200 42.249752,110.945908 
	C34.695965,105.990593 36.809196,97.952652 36.054802,90.368820 
z"/>
<path fill="#572527" opacity="1.000000" stroke="none" 
	d="
M44.833408,119.294296 
	C47.878937,118.104042 50.661488,117.151512 54.085068,115.961288 
	C55.216011,115.156013 55.705929,114.588417 56.488354,114.240143 
	C56.884701,114.935066 56.988541,115.410667 57.071533,116.270157 
	C57.033802,117.423653 57.016911,118.193268 56.594303,118.956879 
	C55.107018,118.921638 54.025448,118.892395 52.837959,118.781067 
	C52.450169,118.610069 52.217911,118.689636 51.739517,119.122482 
	C48.391857,120.735519 45.328819,122.140694 42.294563,123.605484 
	C41.335583,124.068436 40.453537,124.690750 39.536278,125.240128 
	C40.195278,126.254166 40.622143,127.743279 41.554115,128.198669 
	C45.268158,130.013474 49.139530,131.506271 53.062912,133.417511 
	C54.452229,134.808197 55.731285,135.899658 57.010338,136.991119 
	C50.174603,134.495285 43.338867,131.999466 36.198021,128.927826 
	C35.936592,126.568298 35.980278,124.784599 36.023964,123.000893 
	C38.872787,121.844604 41.721611,120.688316 44.833408,119.294296 
z"/>
<path fill="#453134" opacity="1.000000" stroke="none" 
	d="
M165.058960,166.178619 
	C164.837769,165.896790 164.616562,165.614944 164.189331,165.158585 
	C166.280624,161.649078 168.257553,162.695709 169.944061,165.512817 
	C175.038345,174.022110 170.492508,187.699646 160.298218,193.836685 
	C159.978348,193.497025 159.975937,193.038330 160.178833,191.966278 
	C166.739456,186.794724 170.751450,175.950577 168.432938,168.796844 
	C168.070068,167.677216 166.220871,167.039291 165.058960,166.178619 
z"/>
<path fill="#221D1E" opacity="1.000000" stroke="none" 
	d="
M164.015228,120.893356 
	C163.504059,119.581993 162.992905,118.270630 162.546295,117.124863 
	C164.439087,115.872017 166.108795,114.766838 167.878891,113.331497 
	C170.687698,112.788376 173.396118,112.575417 176.113480,112.361755 
	C173.599884,115.490967 171.316849,118.333145 169.015198,121.595886 
	C168.996582,122.016457 169.023392,122.133415 168.662323,122.046272 
	C166.872589,121.603874 165.443909,121.248611 164.015228,120.893356 
z"/>
<path fill="#462B2B" opacity="1.000000" stroke="none" 
	d="
M168.988113,121.957062 
	C169.731537,121.943657 170.483414,121.989647 171.850891,122.255310 
	C173.644775,122.973145 174.823074,123.471313 176.001373,123.969475 
	C177.139359,124.534775 178.277344,125.100067 179.415329,125.665367 
	C179.526077,126.184753 179.636826,126.704140 179.747589,127.223534 
	C176.443420,128.163940 173.139252,129.104355 169.432068,129.796173 
	C169.032379,129.377838 169.035736,129.208099 169.361252,128.956268 
	C171.845428,127.765152 173.048767,126.552444 170.047516,124.599770 
	C169.661804,123.582664 169.342590,122.858040 169.023392,122.133415 
	C169.023392,122.133415 168.996582,122.016457 168.988113,121.957062 
z"/>
<path fill="#612226" opacity="1.000000" stroke="none" 
	d="
M169.039078,129.038361 
	C169.035736,129.208099 169.032379,129.377838 169.030548,129.802856 
	C167.568817,130.959747 166.105591,131.861374 164.102875,132.673859 
	C162.701935,133.046310 161.840454,133.507889 160.978989,133.969452 
	C160.566788,134.009720 160.154602,134.049988 159.123566,134.141251 
	C157.983932,134.764587 157.463104,135.336945 156.942291,135.909286 
	C155.864197,136.236542 154.786087,136.563797 153.359955,136.601364 
	C153.009964,135.905075 153.008011,135.498489 153.028778,134.777115 
	C153.109207,134.049286 153.166931,133.636246 153.563873,133.189026 
	C154.578659,133.062561 155.254211,132.970276 156.297424,132.853424 
	C160.717850,131.489075 164.770599,130.149292 168.877136,128.866852 
	C168.930923,128.924194 169.039078,129.038361 169.039078,129.038361 
z"/>
<path fill="#3C2F2F" opacity="1.000000" stroke="none" 
	d="
M35.646576,123.021118 
	C35.980278,124.784599 35.936592,126.568298 35.941681,128.693436 
	C33.720196,128.538864 31.449928,128.042877 29.179665,127.546875 
	C29.112329,126.928810 29.044996,126.310753 28.977663,125.692688 
	C31.074839,124.808907 33.172016,123.925117 35.646576,123.021118 
z"/>
<path fill="#572527" opacity="1.000000" stroke="none" 
	d="
M71.001511,141.947128 
	C67.182976,140.809372 63.364555,139.595078 59.457287,137.929398 
	C59.638336,137.259659 59.908234,137.041306 60.577019,136.864182 
	C62.317455,137.069061 63.658997,137.232742 65.139465,137.686310 
	C67.189583,139.223434 69.100784,140.470688 71.011986,141.717926 
	C71.011986,141.717926 71.001625,141.870605 71.001511,141.947128 
z"/>
<path fill="#221D1E" opacity="1.000000" stroke="none" 
	d="
M176.065552,123.621597 
	C174.823074,123.471313 173.644775,122.973145 172.226974,122.268585 
	C173.073959,121.114059 174.160461,120.165939 175.246948,119.217812 
	C175.541214,120.569778 175.835480,121.921745 176.065552,123.621597 
z"/>
<path fill="#6C2123" opacity="1.000000" stroke="none" 
	d="
M60.178131,136.822968 
	C59.908234,137.041306 59.638336,137.259659 59.204468,137.678436 
	C58.500977,137.715012 57.961460,137.551178 57.216141,137.189240 
	C55.731285,135.899658 54.452229,134.808197 53.391190,133.399292 
	C54.046543,133.089554 54.483887,133.097244 55.173237,133.325882 
	C57.009541,134.638870 58.593838,135.730927 60.178131,136.822968 
z"/>
<path fill="#482828" opacity="1.000000" stroke="none" 
	d="
M148.113556,138.138809 
	C146.574341,138.884384 145.035126,139.629959 143.254547,139.892059 
	C143.028519,138.981735 143.043854,138.554871 143.385559,138.026459 
	C144.808884,137.627716 145.905869,137.330521 147.161728,137.241058 
	C147.584930,137.678802 147.849243,137.908798 148.113556,138.138809 
z"/>
<path fill="#482828" opacity="1.000000" stroke="none" 
	d="
M153.006073,135.091888 
	C153.008011,135.498489 153.009964,135.905075 153.018661,136.615387 
	C151.926926,137.292450 150.828430,137.665787 149.452271,137.824799 
	C149.128723,136.905319 149.082855,136.200150 149.354462,135.381866 
	C150.105530,135.156921 150.539154,135.045074 151.309937,134.979034 
	C152.100082,135.047195 152.553070,135.069550 153.006073,135.091888 
z"/>
<path fill="#612226" opacity="1.000000" stroke="none" 
	d="
M149.037003,135.494980 
	C149.082855,136.200150 149.128723,136.905319 149.091492,137.827606 
	C149.008377,138.044708 148.559555,138.085678 148.336548,138.112244 
	C147.849243,137.908798 147.584930,137.678802 147.184799,136.940979 
	C147.109924,136.039398 147.170883,135.645645 147.537384,135.259766 
	C148.240936,135.343430 148.638977,135.419205 149.037003,135.494980 
z"/>
<path fill="#482828" opacity="1.000000" stroke="none" 
	d="
M140.072678,140.373779 
	C139.567581,140.888153 139.062500,141.402512 138.283585,141.994568 
	C138.009766,142.072266 137.984467,141.980499 137.984955,141.606750 
	C138.016846,140.571030 138.048233,139.909058 138.388855,139.202225 
	C139.114029,139.159866 139.529984,139.162384 139.973114,139.467590 
	C140.024414,139.971451 140.048553,140.172623 140.072678,140.373779 
z"/>
<path fill="#612226" opacity="1.000000" stroke="none" 
	d="
M140.433533,140.304016 
	C140.048553,140.172623 140.024414,139.971451 140.261749,139.295242 
	C141.368530,138.589478 142.213867,138.358734 143.059204,138.128006 
	C143.043854,138.554871 143.028519,138.981735 143.000397,139.729553 
	C142.256561,140.111740 141.525467,140.172989 140.433533,140.304016 
z"/>
<path fill="#462B2B" opacity="1.000000" stroke="none" 
	d="
M161.312759,133.959503 
	C161.840454,133.507889 162.701935,133.046310 163.780762,132.738419 
	C163.214249,133.244583 162.430389,133.597061 161.312759,133.959503 
z"/>
<path fill="#462B2B" opacity="1.000000" stroke="none" 
	d="
M157.242920,135.859009 
	C157.463104,135.336945 157.983932,134.764587 158.813141,134.153168 
	C158.595520,134.678970 158.069534,135.243835 157.242920,135.859009 
z"/>
<path fill="#070504" opacity="1.000000" stroke="none" 
	d="
M82.297104,149.813461 
	C81.454308,149.215820 80.877716,148.442581 80.251694,147.603058 
	C79.300705,150.932953 78.375954,154.170975 77.209587,158.254974 
	C73.648247,155.643326 70.853127,153.593582 68.183464,151.635834 
	C70.187454,148.531311 71.834656,145.979507 74.069817,143.352173 
	C77.776726,144.487213 80.895676,145.697800 84.014618,146.908386 
	C83.530846,147.818207 83.047073,148.728043 82.297104,149.813461 
z"/>
<path fill="#572527" opacity="1.000000" stroke="none" 
	d="
M84.368210,146.972290 
	C80.895676,145.697800 77.776726,144.487213 74.328529,143.121216 
	C74.000320,142.785751 74.001358,142.605698 74.000839,141.858307 
	C74.002693,141.091965 74.006111,140.892975 74.403030,140.779175 
	C78.864288,142.245544 82.932053,143.626709 87.259399,145.264542 
	C92.633980,147.848022 93.202835,147.603928 94.392136,142.752609 
	C95.804688,143.708603 96.893417,144.622925 97.982132,145.537231 
	C97.362419,147.173828 96.742714,148.810425 96.002884,150.814392 
	C95.181618,151.045975 94.480469,150.910202 93.233658,150.565781 
	C92.210693,150.179474 91.733391,150.001831 91.256088,149.824173 
	C89.077988,148.894836 86.899895,147.965515 84.368210,146.972290 
z"/>
<path fill="#070504" opacity="1.000000" stroke="none" 
	d="
M90.998222,150.048843 
	C91.733391,150.001831 92.210693,150.179474 92.877121,150.529114 
	C92.302330,151.806351 91.538406,152.911621 90.774483,154.016907 
	C90.332695,153.768326 89.890900,153.519745 89.449112,153.271179 
	C89.879524,152.271957 90.309944,151.272736 90.998222,150.048843 
z"/>
<path fill="#353130" opacity="1.000000" stroke="none" 
	d="
M77.340416,175.862183 
	C76.617691,175.895447 75.920341,175.828690 74.917938,175.371368 
	C75.322655,174.161591 76.032425,173.342361 76.742195,172.523148 
	C76.860405,173.195877 76.978607,173.868607 77.220764,175.049103 
	C77.344719,175.556854 77.365799,175.762146 77.340416,175.862183 
z"/>
<path fill="#221D1C" opacity="1.000000" stroke="none" 
	d="
M41.003773,89.004532 
	C40.169670,89.055809 39.335567,89.107086 38.262360,89.052704 
	C37.537781,80.194199 35.792141,71.291832 36.809509,62.717297 
	C39.563499,39.506252 53.111053,23.697159 74.332130,14.977304 
	C100.163818,4.362931 125.156487,6.538935 148.095764,23.110186 
	C168.430084,37.799610 176.894302,63.703365 169.698776,87.511345 
	C169.632233,87.731468 169.205612,87.842766 169.197189,87.848045 
	C168.885452,80.742928 168.567169,73.488586 168.248871,66.234245 
	C167.505661,66.251625 166.762451,66.268997 166.019241,66.286377 
	C166.019241,70.800774 166.004013,75.315231 166.022324,79.829552 
	C166.063705,90.028931 163.331345,99.535286 158.692795,108.518394 
	C156.987900,111.820099 154.916946,114.932785 152.689896,118.673782 
	C150.812271,120.416290 149.352249,121.772087 147.684586,122.786522 
	C143.525513,125.316467 139.272018,127.691200 135.189941,129.794891 
	C136.921280,126.010468 138.762329,122.647682 140.055054,119.085884 
	C141.653030,114.683037 141.520142,110.236366 138.722321,104.983932 
	C138.061584,110.561821 138.108780,115.218849 136.838104,119.483177 
	C135.540375,123.838333 132.948898,127.807983 130.593948,132.039032 
	C127.846390,133.421051 125.428688,134.710449 123.076401,135.660400 
	C125.065636,132.309021 127.857681,129.533249 128.753052,126.241562 
	C131.619705,115.702644 127.462387,106.967255 120.087463,99.659012 
	C111.935234,91.580490 108.575172,82.478851 110.523178,70.762367 
	C111.979927,62.000549 112.094856,52.825787 106.849876,44.627377 
	C101.295029,35.944630 92.991013,30.566090 84.494003,25.364233 
	C84.368385,25.287333 83.968086,25.659136 83.313156,26.049994 
	C85.071030,28.292864 86.795418,30.493017 87.748375,31.708899 
	C79.291428,36.433331 71.268417,40.888748 63.277298,45.400661 
	C61.556904,46.372025 59.312080,47.332706 61.534332,50.095413 
	C61.075546,50.545658 60.868950,50.701183 60.439964,50.564316 
	C59.489250,50.524738 58.760925,50.777550 57.724041,51.166721 
	C48.640263,59.611305 44.685440,70.040459 44.095463,81.892509 
	C43.954559,84.723152 44.434246,87.670219 41.003773,89.004532 
z"/>
<path fill="#612226" opacity="1.000000" stroke="none" 
	d="
M135.056427,130.128235 
	C139.272018,127.691200 143.525513,125.316467 147.684586,122.786522 
	C149.352249,121.772087 150.812271,120.416290 152.664261,119.046249 
	C155.202347,119.369621 157.442978,119.862610 159.812042,120.711395 
	C159.940445,121.067184 159.813431,121.206802 159.468460,121.133255 
	C157.096222,121.385643 155.068939,121.711578 153.020538,122.027145 
	C152.999405,122.016785 153.034607,122.052025 152.694305,122.100403 
	C150.202606,124.401222 148.051208,126.653671 145.589371,128.994110 
	C144.198639,129.740921 143.118347,130.399750 141.671051,131.106140 
	C136.205109,133.451309 131.106171,135.748901 125.689888,138.088318 
	C124.566505,138.403641 123.760437,138.677124 122.617691,139.014801 
	C120.561981,140.569153 118.842949,142.059341 117.123917,143.549530 
	C117.407524,144.069946 117.691124,144.590347 117.974731,145.110748 
	C120.322281,144.753693 122.669830,144.396637 125.015625,144.360275 
	C125.002930,145.108536 124.991982,145.536118 124.673309,146.022400 
	C123.588753,146.725204 122.811928,147.369308 121.728287,148.103394 
	C120.615005,148.469162 119.808540,148.744934 118.691460,149.014725 
	C117.968262,149.022461 117.555672,149.036163 116.777176,148.969131 
	C113.104340,148.258835 112.811089,145.867584 113.059799,143.116348 
	C113.057884,143.074295 113.142479,143.080490 113.411812,142.985260 
	C114.005020,142.448273 114.328903,142.006500 114.660873,141.612396 
	C114.668976,141.660065 114.572670,141.651123 114.818344,141.545197 
	C115.262009,141.150391 115.459991,140.861496 115.673569,140.647125 
	C115.689156,140.721649 115.537170,140.730911 115.818359,140.581787 
	C116.355408,140.100372 116.611267,139.768082 116.956902,139.241577 
	C117.316444,138.723724 117.586205,138.400070 118.172531,137.931198 
	C119.996399,137.190598 121.503693,136.595215 123.010986,135.999832 
	C125.428688,134.710449 127.846390,133.421051 130.962128,132.058136 
	C132.792252,131.365814 133.924347,130.747025 135.056427,130.128235 
z"/>
<path fill="#E3D4CB" opacity="1.000000" stroke="none" 
	d="
M169.020233,95.370697 
	C169.518555,102.629227 168.386963,105.270950 162.047577,110.199211 
	C164.201065,103.965073 165.944565,98.917801 167.688065,93.870529 
	C168.112885,94.257164 168.537720,94.643799 169.020233,95.370697 
z"/>
<path fill="#612226" opacity="1.000000" stroke="none" 
	d="
M168.662323,122.046272 
	C169.342590,122.858040 169.661804,123.582664 170.006042,124.637772 
	C170.031097,124.968262 169.948120,125.044205 169.586823,124.956207 
	C166.088165,123.647736 162.950790,122.427269 159.813431,121.206802 
	C159.813431,121.206802 159.940445,121.067184 160.004639,120.996735 
	C161.121063,120.936546 162.173294,120.946808 163.620392,120.925217 
	C165.443909,121.248611 166.872589,121.603874 168.662323,122.046272 
z"/>
<path fill="#020202" opacity="1.000000" stroke="none" 
	d="
M119.002068,149.020706 
	C119.808540,148.744934 120.615005,148.469162 122.040359,148.092438 
	C124.124863,148.335251 125.590485,148.678986 127.056107,149.022720 
	C124.608475,163.711624 127.844528,176.790909 138.366074,187.996521 
	C141.074600,194.303116 146.089203,196.889862 152.616257,197.990723 
	C152.173523,198.722076 151.365616,199.900818 150.545441,199.909409 
	C138.745071,200.033096 126.923927,200.367752 115.154266,199.756470 
	C112.026749,199.594040 108.358345,197.024612 106.141953,194.502533 
	C99.000702,186.376358 98.795433,168.926758 105.605873,160.038269 
	C107.027107,160.529907 108.005768,160.817062 108.984428,161.104218 
	C108.218307,160.052231 107.452179,159.000244 106.686050,157.948273 
	C107.346207,156.552200 108.006371,155.156113 109.178574,153.416077 
	C110.112785,152.986649 110.534935,152.901199 111.047989,153.105011 
	C115.391174,154.869186 117.956017,153.310257 119.002068,149.020706 
z"/>
<path fill="#463F3E" opacity="1.000000" stroke="none" 
	d="
M107.965485,150.920044 
	C104.840942,150.212921 101.521118,149.774414 100.620346,145.286163 
	C100.876839,143.265961 101.337029,141.687820 102.060135,139.902954 
	C104.121368,137.313171 105.646088,138.578781 107.012405,140.411438 
	C107.562706,142.600494 108.255363,144.436630 108.740593,146.424011 
	C108.343941,148.023499 108.154716,149.471771 107.965485,150.920044 
z"/>
<path fill="#E5E1E0" opacity="1.000000" stroke="none" 
	d="
M101.797218,140.109695 
	C101.337029,141.687820 100.876839,143.265961 100.350708,145.207535 
	C99.707016,145.679565 99.129257,145.788147 98.266815,145.716980 
	C96.893417,144.622925 95.804688,143.708603 94.281998,142.453384 
	C92.591118,140.457291 91.334198,138.802124 90.485519,137.112854 
	C94.528244,138.089081 98.162735,139.099380 101.797218,140.109695 
z"/>
<path fill="#453536" opacity="1.000000" stroke="none" 
	d="
M108.178558,151.162796 
	C108.154716,149.471771 108.343941,148.023499 109.073669,146.394730 
	C110.763359,145.195633 111.912544,144.177017 113.061722,143.158401 
	C112.811089,145.867584 113.104340,148.258835 116.525955,149.194031 
	C114.746132,150.605026 112.851608,151.710388 110.957092,152.815750 
	C110.534935,152.901199 110.112785,152.986649 109.374947,153.140091 
	C108.836723,152.607239 108.614174,152.006393 108.178558,151.162796 
z"/>
<path fill="#070405" opacity="1.000000" stroke="none" 
	d="
M106.581116,158.150452 
	C107.452179,159.000244 108.218307,160.052231 108.984428,161.104218 
	C108.005768,160.817062 107.027107,160.529907 105.944290,159.891296 
	C106.052155,159.144119 106.264175,158.748383 106.581116,158.150452 
z"/>
<path fill="#312B28" opacity="1.000000" stroke="none" 
	d="
M64.031929,165.098083 
	C61.611362,160.830353 59.190792,156.562637 56.106239,151.124222 
	C64.421967,152.137009 70.133514,154.919662 74.752724,159.547729 
	C76.884705,161.683807 76.742622,164.459122 72.608780,166.113464 
	C69.243195,165.862152 66.637566,165.480118 64.031929,165.098083 
M66.217079,160.705765 
	C66.434860,160.606613 66.652641,160.507462 66.870422,160.408310 
	C66.611183,160.425217 66.351944,160.442139 66.217079,160.705765 
z"/>
<path fill="#EAD9C8" opacity="1.000000" stroke="none" 
	d="
M63.966805,165.467987 
	C66.637566,165.480118 69.243195,165.862152 72.236542,166.227097 
	C73.866257,168.148911 75.108269,170.087799 76.546234,172.274918 
	C76.032425,173.342361 75.322655,174.161591 74.402306,175.286316 
	C65.345978,177.251434 62.355865,174.417114 63.966805,165.467987 
z"/>
<path fill="#6C2123" opacity="1.000000" stroke="none" 
	d="
M74.009537,140.693970 
	C74.006111,140.892975 74.002693,141.091965 74.000763,141.588226 
	C73.253120,141.872894 72.503990,141.860291 71.383423,141.782806 
	C69.100784,140.470688 67.189583,139.223434 65.140106,137.543701 
	C65.001816,137.111191 64.978203,136.834122 65.314163,136.878754 
	C66.099800,136.948410 66.549461,136.973419 67.203506,137.207306 
	C67.959915,137.569290 68.511940,137.722412 69.298691,137.908112 
	C69.533417,137.940704 70.002968,138.005112 70.223541,138.223724 
	C71.632584,139.192886 72.821060,139.943420 74.009537,140.693970 
z"/>
<path fill="#302B29" opacity="1.000000" stroke="none" 
	d="
M144.016266,160.898209 
	C143.210098,161.587372 142.403915,162.276535 141.042145,163.012756 
	C140.029541,163.370117 139.572540,163.680389 139.115540,163.990677 
	C137.744446,164.164963 138.811111,170.193741 135.239990,165.310974 
	C131.904785,163.520493 130.922134,161.373886 134.263779,159.225922 
	C138.547073,156.472656 143.026825,153.982468 147.594162,151.727890 
	C150.912552,150.089828 152.160828,151.962402 151.995758,155.602539 
	C149.573166,157.348495 147.148178,158.692764 144.119080,160.055542 
	C143.116913,160.222412 142.718857,160.370804 142.320786,160.519196 
	C142.885941,160.645523 143.451111,160.771866 144.016266,160.898209 
z"/>
<path fill="#070405" opacity="1.000000" stroke="none" 
	d="
M127.267944,148.830582 
	C125.590485,148.678986 124.124863,148.335251 122.347168,148.002472 
	C122.811928,147.369308 123.588753,146.725204 125.027863,146.041275 
	C127.145561,145.366608 128.600967,144.731766 130.055023,144.056549 
	C130.053680,144.016190 130.033524,144.092392 130.376907,144.102051 
	C131.559036,143.778030 132.397781,143.444321 133.564850,143.102570 
	C134.542847,143.131912 135.192535,143.169296 135.842224,143.206680 
	C137.244003,145.841537 138.645767,148.476395 140.393631,151.761765 
	C138.037842,153.488297 135.221756,155.552170 131.546143,158.245972 
	C130.471176,154.331177 129.569580,151.047775 128.636002,147.647827 
	C128.383377,147.864273 127.931580,148.251358 127.267944,148.830582 
z"/>
<path fill="#612226" opacity="1.000000" stroke="none" 
	d="
M136.054260,142.966553 
	C135.192535,143.169296 134.542847,143.131912 133.208374,143.081451 
	C131.693558,143.409698 130.863541,143.751038 130.033524,144.092377 
	C130.033524,144.092392 130.053680,144.016190 129.775284,143.979691 
	C129.008377,143.654007 128.519852,143.364822 128.244232,142.857620 
	C129.306519,142.094894 130.155945,141.550186 131.238586,140.978485 
	C131.471832,140.951477 131.937653,140.891937 132.255951,140.875793 
	C133.407852,140.270325 134.241455,139.680984 135.386459,139.059631 
	C136.112106,138.976273 136.526352,138.924942 137.226608,138.963135 
	C137.701645,139.117462 137.890640,139.182281 138.079636,139.247101 
	C138.048233,139.909058 138.016846,140.571030 137.972534,141.560806 
	C137.395203,142.167877 136.830765,142.447144 136.054260,142.966553 
z"/>
<path fill="#302B29" opacity="1.000000" stroke="none" 
	d="
M134.640839,166.193604 
	C134.179794,167.019241 133.438553,167.976273 132.351288,168.958374 
	C132.790405,168.097305 133.575531,167.211166 134.640839,166.193604 
z"/>
<path fill="#FBB2BD" opacity="1.000000" stroke="none" 
	d="
M155.012604,193.816071 
	C152.215881,193.325836 149.419159,192.835602 146.309845,191.783600 
	C146.003540,190.793793 146.009827,190.365768 146.376221,190.008392 
	C158.107849,192.084167 166.662857,180.462204 162.718597,168.415527 
	C163.220459,168.057632 163.539932,167.899109 164.106995,168.030029 
	C165.234222,170.163025 167.039734,172.122055 166.826752,173.829269 
	C166.069595,179.898453 164.602478,185.801605 158.736359,189.432434 
	C157.552551,190.165131 157.049118,191.997055 156.231995,193.322189 
	C156.231995,193.322189 156.190369,193.213715 156.007324,193.253372 
	C155.513016,193.404205 155.242447,193.578552 155.012604,193.816071 
z"/>
<path fill="#F8BBC3" opacity="1.000000" stroke="none" 
	d="
M146.016098,189.937744 
	C146.009827,190.365768 146.003540,190.793793 145.992630,191.542816 
	C144.335953,190.243729 141.782150,188.898773 141.189285,186.955551 
	C138.736099,178.914551 139.519852,171.011063 144.652557,164.107376 
	C145.847000,162.500793 148.395950,161.901230 150.799530,161.114502 
	C151.871262,162.565109 152.465164,163.739487 152.682419,164.983765 
	C147.116959,165.853653 143.554382,168.350540 142.767380,174.212143 
	C142.393127,175.283508 142.244415,176.121597 142.052872,177.364105 
	C142.025955,178.851822 142.041870,179.935104 142.038757,181.401672 
	C143.351822,184.502548 144.683960,187.220139 146.016098,189.937744 
z"/>
<path fill="#E9BCC2" opacity="1.000000" stroke="none" 
	d="
M156.563980,193.270020 
	C157.049118,191.997055 157.552551,190.165131 158.736359,189.432434 
	C164.602478,185.801605 166.069595,179.898453 166.826752,173.829269 
	C167.039734,172.122055 165.234222,170.163025 164.134430,167.845642 
	C163.914307,167.371811 164.000275,167.009506 164.000275,167.009506 
	C164.360703,167.044571 164.657486,166.923553 164.974777,166.412537 
	C166.220871,167.039291 168.070068,167.677216 168.432938,168.796844 
	C170.751450,175.950577 166.739456,186.794724 160.174240,191.621887 
	C158.941544,192.333176 157.918747,192.775497 156.563980,193.270020 
z"/>
<path fill="#5B2F33" opacity="1.000000" stroke="none" 
	d="
M163.631104,166.985077 
	C164.000275,167.009506 163.914307,167.371811 163.886871,167.556198 
	C163.539932,167.899109 163.220459,168.057632 162.454865,168.399368 
	C161.689819,168.728287 161.370865,168.873978 160.726196,168.877533 
	C159.279434,168.383652 158.158371,168.031921 156.842072,167.447388 
	C155.450928,166.447708 154.254990,165.680801 153.059052,164.913879 
	C152.465164,163.739487 151.871262,162.565109 151.190567,161.061554 
	C152.526047,161.039444 154.128738,161.030167 155.334091,161.717606 
	C158.080246,163.283737 160.631500,165.191620 163.631104,166.985077 
z"/>
<path fill="#493736" opacity="1.000000" stroke="none" 
	d="
M144.012436,160.700562 
	C143.451111,160.771866 142.885941,160.645523 142.320786,160.519196 
	C142.718857,160.370804 143.116913,160.222412 143.760254,160.090805 
	C144.005539,160.107590 144.008606,160.502930 144.012436,160.700562 
z"/>
<path fill="#493736" opacity="1.000000" stroke="none" 
	d="
M139.372208,163.942474 
	C139.572540,163.680389 140.029541,163.370117 140.717560,163.078644 
	C140.508667,163.363068 140.068771,163.628662 139.372208,163.942474 
z"/>
<path fill="#E9BCC2" opacity="1.000000" stroke="none" 
	d="
M155.273254,193.822983 
	C155.242447,193.578552 155.513016,193.404205 156.063705,193.239349 
	C156.046707,193.400406 155.790298,193.615143 155.273254,193.822983 
z"/>
<path fill="#FADDC7" opacity="1.000000" stroke="none" 
	d="
M57.092377,115.886269 
	C56.988541,115.410667 56.884701,114.935066 56.456108,114.227097 
	C56.131351,113.994720 56.130867,113.976883 56.130867,113.976883 
	C55.234631,112.570244 54.338394,111.163612 52.915028,109.274612 
	C50.566769,102.842003 47.899864,97.003868 47.093269,90.919128 
	C45.168125,76.396286 49.303852,63.398209 59.343231,52.277229 
	C59.919476,51.746162 60.290913,51.301434 60.662354,50.856705 
	C60.868950,50.701183 61.075546,50.545658 61.792606,50.008850 
	C65.553635,47.156216 68.804199,44.684860 72.359268,42.147526 
	C73.171890,41.738514 73.679993,41.395481 74.552658,41.016354 
	C79.833130,39.232822 84.793777,37.599670 89.649467,35.698429 
	C92.977287,34.395420 95.379036,35.601746 97.657013,37.843460 
	C105.257385,45.322842 108.494461,54.402950 107.516792,65.018059 
	C107.449348,65.374901 107.552086,65.697319 107.712585,66.376854 
	C107.504967,68.154831 107.239586,69.575684 106.690796,71.084579 
	C106.522575,72.119690 106.637779,73.066757 106.805809,74.459854 
	C106.799210,77.598061 106.739784,80.290237 106.452675,83.069351 
	C106.469093,83.772392 106.713203,84.388496 107.073639,85.223335 
	C107.189957,85.442078 107.168427,85.937103 106.896400,86.095146 
	C106.089127,87.320572 105.553886,88.387955 104.648201,89.484665 
	C103.082848,90.861572 101.836151,92.167152 100.702515,93.564453 
	C97.007996,98.118301 97.128075,98.809975 101.848923,102.330734 
	C100.802452,104.429901 99.900566,106.227516 98.602737,108.051491 
	C97.150993,108.092514 96.095177,108.107170 94.797348,107.902504 
	C92.135529,107.245636 89.715721,106.808098 86.741859,106.270378 
	C87.761421,104.655289 88.315445,103.871887 88.773666,103.035965 
	C91.133873,98.730347 90.354088,90.087029 87.203499,86.754288 
	C87.042969,86.359886 87.025772,86.185608 87.206238,85.744949 
	C86.828979,81.940430 86.254051,78.402275 85.731628,74.566544 
	C85.799179,73.867844 85.814217,73.466728 86.046135,72.822342 
	C86.350349,72.110283 86.682541,71.441910 86.487823,71.202988 
	C84.040428,68.200150 72.296150,65.945312 68.747231,67.789993 
	C68.387016,67.977226 68.269714,68.631790 68.025787,69.037689 
	C68.011894,69.005898 68.071251,69.041855 67.814911,69.093307 
	C67.704910,69.763748 67.851257,70.382744 67.998802,71.000870 
	C68.000000,71.000000 67.998222,71.002441 68.128723,71.339340 
	C71.222641,71.983749 74.186058,72.291260 77.471863,72.600410 
	C78.193169,72.756195 78.592087,72.910332 78.995911,73.511940 
	C78.971832,75.755272 78.942848,77.551132 78.600685,79.379974 
	C77.665245,79.329025 77.042976,79.245117 76.164505,79.231583 
	C75.610092,79.490936 75.311890,79.679916 74.703003,80.017166 
	C68.072571,84.085518 66.958611,90.288605 66.802269,97.274956 
	C66.424629,99.257996 64.245735,101.689453 68.414070,102.065430 
	C69.098976,102.546028 69.539597,102.889481 70.157928,103.561501 
	C73.903893,104.593224 77.472130,105.296387 81.202774,106.265251 
	C82.243553,107.018852 83.121933,107.506752 84.134628,108.187897 
	C84.468674,108.628006 84.705452,108.831833 84.972099,109.375038 
	C85.513947,111.279533 85.772346,113.014053 86.688637,114.267700 
	C87.735756,115.700340 89.368164,116.705177 90.746246,117.895905 
	C91.920670,116.521538 93.049332,115.104233 94.285019,113.787346 
	C95.165154,112.849373 96.195839,111.299294 97.148064,111.307648 
	C102.362541,111.353401 107.573532,111.796318 112.903122,112.445976 
	C114.675255,114.804405 116.075012,118.055641 118.060951,118.465317 
	C119.824402,118.829094 122.238365,116.039413 125.797546,113.700340 
	C125.434273,118.361351 125.175377,121.683067 124.729340,125.261276 
	C124.404938,126.130051 124.267677,126.742332 124.170929,127.520226 
	C124.211433,127.685837 124.051399,127.986938 123.901947,128.199844 
	C123.712997,128.752853 123.673492,129.092941 123.635124,129.509796 
	C123.636261,129.586563 123.490189,129.633881 123.081207,129.549713 
	C120.109131,130.548660 116.080833,128.211044 114.785522,132.831177 
	C114.572105,132.910126 114.119110,132.866577 113.999062,132.570374 
	C113.309769,132.259293 112.740532,132.244415 112.171288,132.229538 
	C112.486130,132.702942 112.800972,133.176346 113.319458,133.945602 
	C112.393272,134.776825 111.234688,135.826721 110.138199,135.765442 
	C102.026428,135.312073 93.927040,134.637436 85.533752,133.845139 
	C80.156403,131.173355 75.069069,128.688812 69.671280,126.033127 
	C65.271347,122.536751 61.181862,119.211510 57.092377,115.886269 
z"/>
<path fill="#463830" opacity="1.000000" stroke="none" 
	d="
M59.138420,52.363567 
	C49.303852,63.398209 45.168125,76.396286 47.093269,90.919128 
	C47.899864,97.003868 50.566769,102.842003 52.631142,109.064468 
	C50.668945,109.193214 48.463505,109.049767 46.070427,108.213150 
	C46.135864,107.309517 46.629311,107.068565 46.607052,106.893013 
	C45.955193,101.751602 45.297836,96.608772 44.416042,91.505096 
	C44.373730,91.260193 42.278439,91.370003 41.139187,91.314621 
	C41.106178,90.801399 41.073170,90.288170 41.021965,89.389740 
	C44.434246,87.670219 43.954559,84.723152 44.095463,81.892509 
	C44.685440,70.040459 48.640263,59.611305 57.937366,51.363113 
	C58.685638,51.736618 58.912029,52.050095 59.138420,52.363567 
z"/>
<path fill="#ECD7C6" opacity="1.000000" stroke="none" 
	d="
M40.974342,91.646790 
	C42.278439,91.370003 44.373730,91.260193 44.416042,91.505096 
	C45.297836,96.608772 45.955193,101.751602 46.607052,106.893013 
	C46.629311,107.068565 46.135864,107.309517 45.741295,107.867516 
	C45.280853,108.515121 44.961914,108.815193 44.156364,108.919754 
	C43.511627,108.644333 43.353500,108.564438 43.195374,108.484535 
	C38.171684,102.646568 37.492306,97.946587 40.974342,91.646790 
z"/>
<path fill="#463830" opacity="1.000000" stroke="none" 
	d="
M55.770267,114.114182 
	C56.130867,113.976883 56.131351,113.994720 56.163597,114.007767 
	C55.705929,114.588417 55.216011,115.156013 54.367352,115.858818 
	C54.475628,115.413177 54.942646,114.832329 55.770267,114.114182 
z"/>
<path fill="#463830" opacity="1.000000" stroke="none" 
	d="
M43.211296,108.646683 
	C43.353500,108.564438 43.511627,108.644333 43.827538,108.938034 
	C43.985325,109.151825 43.524395,109.153015 43.524395,109.153015 
	C43.524395,109.153015 43.227222,108.808838 43.211296,108.646683 
z"/>
<path fill="#9C111B" opacity="1.000000" stroke="none" 
	d="
M54.921230,133.104935 
	C54.483887,133.097244 54.046543,133.089554 53.280926,133.100067 
	C49.139530,131.506271 45.268158,130.013474 41.554115,128.198669 
	C40.622143,127.743279 40.195278,126.254166 39.536278,125.240128 
	C40.453537,124.690750 41.335583,124.068436 42.294563,123.605484 
	C45.328819,122.140694 48.391857,120.735519 51.967960,119.123230 
	C52.492157,118.939163 52.943878,118.863159 52.943878,118.863159 
	C54.025448,118.892395 55.107018,118.921638 56.808800,119.210190 
	C59.998238,121.942825 62.567463,124.416161 64.761497,126.907623 
	C62.394707,125.588501 60.509979,124.033623 58.376251,122.985771 
	C56.790653,122.207092 54.431408,121.217422 53.210548,121.851097 
	C50.600071,123.206047 48.504253,125.552551 46.057247,127.611000 
	C49.349670,129.535202 52.222076,131.213943 55.050777,132.945419 
	C55.007072,132.998169 54.921230,133.104935 54.921230,133.104935 
z"/>
<path fill="#5F241C" opacity="1.000000" stroke="none" 
	d="
M65.136688,126.889496 
	C62.567463,124.416161 59.998238,121.942825 57.214516,119.216187 
	C57.016911,118.193268 57.033802,117.423653 57.071533,116.270157 
	C61.181862,119.211510 65.271347,122.536751 69.493744,126.219772 
	C69.351501,126.781654 69.076340,126.985764 68.450485,127.144730 
	C67.386337,127.089500 66.672882,127.079430 65.754196,127.022354 
	C65.548958,126.975349 65.136688,126.889496 65.136688,126.889496 
z"/>
<path fill="#5F241C" opacity="1.000000" stroke="none" 
	d="
M52.837959,118.781067 
	C52.943878,118.863159 52.492157,118.939163 52.263714,118.938423 
	C52.217911,118.689636 52.450169,118.610069 52.837959,118.781067 
z"/>
<path fill="#612226" opacity="1.000000" stroke="none" 
	d="
M170.072571,124.930252 
	C173.048767,126.552444 171.845428,127.765152 169.361252,128.956268 
	C169.039078,129.038361 168.930923,128.924194 168.982117,128.558655 
	C169.338242,127.143478 169.643173,126.093842 169.948120,125.044205 
	C169.948120,125.044205 170.031097,124.968262 170.072571,124.930252 
z"/>
<path fill="#B20713" opacity="1.000000" stroke="none" 
	d="
M136.940582,138.873627 
	C136.526352,138.924942 136.112106,138.976273 135.046326,139.048859 
	C133.575714,139.677383 132.756683,140.284653 131.937653,140.891937 
	C131.937653,140.891937 131.471832,140.951477 130.827759,140.964203 
	C127.925484,139.760727 124.122147,144.057114 122.954376,138.950623 
	C123.760437,138.677124 124.566505,138.403641 125.950302,138.289551 
	C131.698044,135.985504 136.868057,133.522034 142.038055,131.058563 
	C143.118347,130.399750 144.198639,129.740921 145.937744,128.960114 
	C148.742584,126.576111 150.888596,124.314072 153.034607,122.052032 
	C153.034607,122.052025 152.999405,122.016785 153.406952,122.029816 
	C157.770248,123.404579 161.725998,124.766312 165.818314,126.175049 
	C162.193771,128.631927 159.061752,130.754959 155.929749,132.877991 
	C155.254211,132.970276 154.578659,133.062561 153.242905,133.194305 
	C152.046051,133.800262 151.509415,134.366730 150.972778,134.933212 
	C150.539154,135.045074 150.105530,135.156921 149.354462,135.381866 
	C148.638977,135.419205 148.240936,135.343430 147.132523,135.209595 
	C143.261612,136.392227 140.101105,137.632919 136.940582,138.873627 
z"/>
<path fill="#91141D" opacity="1.000000" stroke="none" 
	d="
M156.297424,132.853424 
	C159.061752,130.754959 162.193771,128.631927 165.818314,126.175049 
	C161.725998,124.766312 157.770248,123.404579 153.428070,122.040176 
	C155.068939,121.711578 157.096222,121.385643 159.468460,121.133255 
	C162.950790,122.427269 166.088165,123.647736 169.586823,124.956207 
	C169.643173,126.093842 169.338242,127.143478 168.928329,128.501312 
	C164.770599,130.149292 160.717850,131.489075 156.297424,132.853424 
z"/>
<path fill="#91141D" opacity="1.000000" stroke="none" 
	d="
M151.309937,134.979034 
	C151.509415,134.366730 152.046051,133.800262 152.903656,133.228485 
	C153.166931,133.636246 153.109207,134.049286 153.028778,134.777115 
	C152.553070,135.069550 152.100082,135.047195 151.309937,134.979034 
z"/>
<path fill="#9C111B" opacity="1.000000" stroke="none" 
	d="
M60.577023,136.864182 
	C58.593838,135.730927 57.009541,134.638870 55.173237,133.325882 
	C54.921230,133.104935 55.007072,132.998169 55.437721,132.976700 
	C58.904984,134.248199 61.941593,135.541153 64.978203,136.834122 
	C64.978203,136.834122 65.001816,137.111191 65.001175,137.253799 
	C63.658997,137.232742 62.317455,137.069061 60.577023,136.864182 
z"/>
<path fill="#91141D" opacity="1.000000" stroke="none" 
	d="
M137.226608,138.963120 
	C140.101105,137.632919 143.261612,136.392227 146.826996,135.201721 
	C147.170883,135.645645 147.109924,136.039398 147.025909,136.733246 
	C145.905869,137.330521 144.808884,137.627716 143.385559,138.026459 
	C142.213867,138.358734 141.368530,138.589478 140.234558,138.992554 
	C139.529984,139.162384 139.114029,139.159866 138.388855,139.202225 
	C137.890640,139.182281 137.701645,139.117462 137.226608,138.963120 
z"/>
<path fill="#6C2123" opacity="1.000000" stroke="none" 
	d="
M68.801178,127.189873 
	C69.076340,126.985764 69.351501,126.781654 69.804199,126.390900 
	C75.069069,128.688812 80.156403,131.173355 85.736877,134.115417 
	C87.512444,135.430939 88.794861,136.288940 90.077286,137.146942 
	C91.334198,138.802124 92.591118,140.457291 93.958176,142.411697 
	C93.202835,147.603928 92.633980,147.848022 87.608116,145.252213 
	C88.458328,144.191422 89.219391,143.399628 89.980453,142.607834 
	C87.977448,140.754318 85.974449,138.900803 83.673630,136.966095 
	C82.626701,136.546707 81.877594,136.208511 80.994804,135.557709 
	C76.841141,132.560013 72.821159,129.874939 68.801178,127.189873 
z"/>
<path fill="#9C111B" opacity="1.000000" stroke="none" 
	d="
M83.971451,137.047287 
	C85.974449,138.900803 87.977448,140.754318 89.980453,142.607834 
	C89.219391,143.399628 88.458328,144.191422 87.348541,144.995529 
	C82.932053,143.626709 78.864288,142.245544 74.403030,140.779175 
	C72.821060,139.943420 71.632584,139.192886 70.645760,138.212524 
	C74.029350,138.718201 77.294769,139.208191 80.371185,140.254105 
	C83.869987,141.443588 85.152924,140.798477 83.971451,137.047287 
z"/>
<path fill="#3F342E" opacity="1.000000" stroke="none" 
	d="
M90.485519,137.112854 
	C88.794861,136.288940 87.512444,135.430939 86.026886,134.302643 
	C93.927040,134.637436 102.026428,135.312073 110.138199,135.765442 
	C111.234688,135.826721 112.393272,134.776825 113.572906,133.753159 
	C113.788170,133.132095 113.953636,132.999344 114.119110,132.866577 
	C114.119110,132.866577 114.572105,132.910126 115.176727,132.934525 
	C118.350960,131.850571 120.920570,130.742218 123.490189,129.633881 
	C123.490189,129.633881 123.636261,129.586563 123.813156,129.302338 
	C124.010498,128.674393 124.030945,128.330658 124.051392,127.986938 
	C124.051399,127.986938 124.211433,127.685837 124.475189,127.338707 
	C124.798119,126.329315 124.857300,125.667053 124.916473,125.004791 
	C125.175377,121.683067 125.434273,118.361351 125.797546,113.700340 
	C122.238365,116.039413 119.824402,118.829094 118.060951,118.465317 
	C116.075012,118.055641 114.675255,114.804405 113.170464,112.304108 
	C114.880707,110.985970 116.441010,110.152885 118.387985,109.223404 
	C119.933868,108.839767 121.093079,108.552536 121.861168,108.362221 
	C116.815422,100.661041 111.991920,93.299072 107.168427,85.937103 
	C107.168427,85.937103 107.189957,85.442078 107.107750,84.878853 
	C106.910484,83.871223 106.795418,83.426819 106.680359,82.982414 
	C106.739784,80.290237 106.799210,77.598061 106.918518,74.092926 
	C106.977013,72.518829 106.975616,71.757683 106.974213,70.996536 
	C107.239586,69.575684 107.504967,68.154831 107.792877,66.120041 
	C107.772606,65.331947 107.729790,65.157784 107.686981,64.983627 
	C108.494461,54.402950 105.257385,45.322842 97.657013,37.843460 
	C95.379036,35.601746 92.977287,34.395420 89.649467,35.698429 
	C84.793777,37.599670 79.833130,39.232822 74.260742,41.120888 
	C73.087769,41.578854 72.571266,41.896183 72.054764,42.213512 
	C68.804199,44.684860 65.553635,47.156216 62.044792,49.714130 
	C59.312080,47.332706 61.556904,46.372025 63.277298,45.400661 
	C71.268417,40.888748 79.291428,36.433331 87.748375,31.708899 
	C86.795418,30.493017 85.071030,28.292864 83.313156,26.049994 
	C83.968086,25.659136 84.368385,25.287333 84.494003,25.364233 
	C92.991013,30.566090 101.295029,35.944630 106.849876,44.627377 
	C112.094856,52.825787 111.979927,62.000549 110.523178,70.762367 
	C108.575172,82.478851 111.935234,91.580490 120.087463,99.659012 
	C127.462387,106.967255 131.619705,115.702644 128.753052,126.241562 
	C127.857681,129.533249 125.065636,132.309021 123.076401,135.660400 
	C121.503693,136.595215 119.996399,137.190598 117.830750,137.787415 
	C113.833183,138.545410 110.493965,139.301971 107.154747,140.058548 
	C105.646088,138.578781 104.121368,137.313171 102.060135,139.902954 
	C98.162735,139.099380 94.528244,138.089081 90.485519,137.112854 
z"/>
<path fill="#34302F" opacity="1.000000" stroke="none" 
	d="
M135.189941,129.794891 
	C133.924347,130.747025 132.792252,131.365814 131.291977,131.965485 
	C132.948898,127.807983 135.540375,123.838333 136.838104,119.483177 
	C138.108780,115.218849 138.061584,110.561821 138.722321,104.983932 
	C141.520142,110.236366 141.653030,114.683037 140.055054,119.085884 
	C138.762329,122.647682 136.921280,126.010468 135.189941,129.794891 
z"/>
<path fill="#3F342E" opacity="1.000000" stroke="none" 
	d="
M59.343231,52.277229 
	C58.912029,52.050095 58.685638,51.736618 58.245926,51.226753 
	C58.760925,50.777550 59.489250,50.524738 60.439964,50.564316 
	C60.290913,51.301434 59.919476,51.746162 59.343231,52.277229 
z"/>
<path fill="#F0ECEB" opacity="1.000000" stroke="none" 
	d="
M107.012405,140.411438 
	C110.493965,139.301971 113.833183,138.545410 117.514183,137.932632 
	C117.586205,138.400070 117.316444,138.723724 116.678185,139.395752 
	C116.052177,140.073044 115.794678,140.401978 115.537170,140.730911 
	C115.537170,140.730911 115.689156,140.721649 115.433273,140.760345 
	C114.975822,141.083084 114.774254,141.367111 114.572678,141.651123 
	C114.572670,141.651123 114.668976,141.660065 114.412560,141.733429 
	C113.818253,142.231354 113.480370,142.655930 113.142479,143.080490 
	C113.142479,143.080490 113.057884,143.074295 113.059807,143.116348 
	C111.912544,144.177017 110.763359,145.195633 109.281097,146.243500 
	C108.255363,144.436630 107.562706,142.600494 107.012405,140.411438 
z"/>
<path fill="#91141D" opacity="1.000000" stroke="none" 
	d="
M122.617691,139.014801 
	C124.122147,144.057114 127.925484,139.760727 130.594513,140.991211 
	C130.155945,141.550186 129.306519,142.094894 127.926186,142.890808 
	C126.602638,143.441223 125.810013,143.740402 125.017387,144.039597 
	C122.669830,144.396637 120.322281,144.753693 117.974731,145.110748 
	C117.691124,144.590347 117.407524,144.069946 117.123917,143.549530 
	C118.842949,142.059341 120.561981,140.569153 122.617691,139.014801 
z"/>
<path fill="#91141D" opacity="1.000000" stroke="none" 
	d="
M141.671051,131.106140 
	C136.868057,133.522034 131.698044,135.985504 126.267624,138.247742 
	C131.106171,135.748901 136.205109,133.451309 141.671051,131.106140 
z"/>
<path fill="#070405" opacity="1.000000" stroke="none" 
	d="
M111.047989,153.105011 
	C112.851608,151.710388 114.746132,150.605026 116.891869,149.274780 
	C117.555672,149.036163 117.968262,149.022461 118.691460,149.014725 
	C117.956017,153.310257 115.391174,154.869186 111.047989,153.105011 
z"/>
<path fill="#91141D" opacity="1.000000" stroke="none" 
	d="
M152.694305,122.100403 
	C150.888596,124.314072 148.742584,126.576111 146.248199,128.872131 
	C148.051208,126.653671 150.202606,124.401222 152.694305,122.100403 
z"/>
<path fill="#482828" opacity="1.000000" stroke="none" 
	d="
M125.015625,144.360275 
	C125.810013,143.740402 126.602638,143.441223 127.713303,143.108841 
	C128.519852,143.364822 129.008377,143.654007 129.776627,144.020050 
	C128.600967,144.731766 127.145561,145.366608 125.335594,145.982574 
	C124.991982,145.536118 125.002930,145.108536 125.015625,144.360275 
z"/>
<path fill="#453536" opacity="1.000000" stroke="none" 
	d="
M113.411812,142.985260 
	C113.480370,142.655930 113.818253,142.231354 114.404465,141.685760 
	C114.328903,142.006500 114.005020,142.448273 113.411812,142.985260 
z"/>
<path fill="#453536" opacity="1.000000" stroke="none" 
	d="
M115.818359,140.581787 
	C115.794678,140.401978 116.052177,140.073044 116.588402,139.589935 
	C116.611267,139.768082 116.355408,140.100372 115.818359,140.581787 
z"/>
<path fill="#453536" opacity="1.000000" stroke="none" 
	d="
M114.818344,141.545197 
	C114.774254,141.367111 114.975822,141.083084 115.417679,140.685822 
	C115.459991,140.861496 115.262009,141.150391 114.818344,141.545197 
z"/>
<path fill="#373331" opacity="1.000000" stroke="none" 
	d="
M66.154892,160.582413 
	C66.351944,160.442139 66.611183,160.425217 66.870422,160.408310 
	C66.652641,160.507462 66.434860,160.606613 66.154892,160.582413 
z"/>
<path fill="#BA0311" opacity="1.000000" stroke="none" 
	d="
M83.673630,136.966095 
	C85.152924,140.798477 83.869987,141.443588 80.371185,140.254105 
	C77.294769,139.208191 74.029350,138.718201 70.425186,137.993896 
	C70.002968,138.005112 69.533417,137.940704 69.226784,137.667480 
	C68.279808,137.262329 67.639473,137.130371 66.999130,136.998428 
	C66.549461,136.973419 66.099800,136.948410 65.314163,136.878754 
	C61.941593,135.541153 58.904984,134.248199 55.481430,132.923950 
	C52.222076,131.213943 49.349670,129.535202 46.057247,127.611000 
	C48.504253,125.552551 50.600071,123.206047 53.210548,121.851097 
	C54.431408,121.217422 56.790653,122.207092 58.376251,122.985771 
	C60.509979,124.033623 62.394707,125.588501 64.761497,126.907623 
	C65.136688,126.889496 65.548958,126.975349 65.833115,127.352150 
	C70.169762,132.196671 74.999817,135.230698 81.128487,135.870331 
	C81.877594,136.208511 82.626701,136.546707 83.673630,136.966095 
z"/>
<path fill="#9C111B" opacity="1.000000" stroke="none" 
	d="
M67.203506,137.207306 
	C67.639473,137.130371 68.279808,137.262329 68.992065,137.634903 
	C68.511940,137.722412 67.959915,137.569290 67.203506,137.207306 
z"/>
<path fill="#482828" opacity="1.000000" stroke="none" 
	d="
M130.376907,144.102051 
	C130.863541,143.751038 131.693558,143.409698 132.880066,143.089493 
	C132.397781,143.444321 131.559036,143.778030 130.376907,144.102051 
z"/>
<path fill="#91141D" opacity="1.000000" stroke="none" 
	d="
M132.255951,140.875793 
	C132.756683,140.284653 133.575714,139.677383 134.734894,139.080872 
	C134.241455,139.680984 133.407852,140.270325 132.255951,140.875793 
z"/>
<path fill="#D67383" opacity="1.000000" stroke="none" 
	d="
M161.051895,169.019669 
	C161.370865,168.873978 161.689819,168.728287 162.272507,168.598740 
	C166.662857,180.462204 158.107849,192.084167 146.376221,190.008392 
	C144.683960,187.220139 143.351822,184.502548 142.254761,181.591156 
	C143.258560,181.934204 144.027328,182.471054 144.910034,183.350220 
	C149.057220,189.340805 154.511673,189.434708 157.653580,183.115707 
	C159.751266,178.896805 159.984360,173.750778 161.051895,169.019669 
z"/>
<path fill="#DE7183" opacity="1.000000" stroke="none" 
	d="
M144.796082,183.007904 
	C144.027328,182.471054 143.258560,181.934204 142.273804,181.207886 
	C142.041870,179.935104 142.025955,178.851822 142.246643,177.112579 
	C142.653152,175.630722 142.823044,174.804810 142.992935,173.978882 
	C143.554382,168.350540 147.116959,165.853653 152.682419,164.983765 
	C154.254990,165.680801 155.450928,166.447708 156.827454,167.860291 
	C157.042831,171.075043 157.556625,173.753769 156.999420,176.187286 
	C156.176544,179.780991 154.271988,183.733780 149.833557,182.443329 
	C145.470856,181.174881 147.270828,177.178314 148.294373,173.865082 
	C149.542313,173.304138 150.521896,172.918701 152.320343,172.211075 
	C151.362961,174.978958 150.812408,176.570648 150.261871,178.162338 
	C150.793076,178.408890 151.324295,178.655441 151.855515,178.901993 
	C152.794235,176.783463 154.013901,174.730652 154.532623,172.513824 
	C154.738495,171.634003 153.114670,169.387680 152.793320,169.475769 
	C150.768509,170.030899 148.875748,171.067688 146.701431,172.242096 
	C145.907700,176.028519 145.351883,179.518219 144.796082,183.007904 
z"/>
<path fill="#D67383" opacity="1.000000" stroke="none" 
	d="
M142.767380,174.212143 
	C142.823044,174.804810 142.653152,175.630722 142.289490,176.708176 
	C142.244415,176.121597 142.393127,175.283508 142.767380,174.212143 
z"/>
<path fill="#FDACB9" opacity="1.000000" stroke="none" 
	d="
M144.910034,183.350220 
	C145.351883,179.518219 145.907700,176.028519 146.913452,172.457947 
	C147.584274,172.931564 147.805130,173.486099 148.025986,174.040619 
	C147.270828,177.178314 145.470856,181.174881 149.833557,182.443329 
	C154.271988,183.733780 156.176544,179.780991 156.999420,176.187286 
	C157.556625,173.753769 157.042831,171.075043 157.022675,168.093079 
	C158.158371,168.031921 159.279434,168.383652 160.726196,168.877533 
	C159.984360,173.750778 159.751266,178.896805 157.653580,183.115707 
	C154.511673,189.434708 149.057220,189.340805 144.910034,183.350220 
z"/>
<path fill="#F0D8C5" opacity="1.000000" stroke="none" 
	d="
M106.896400,86.095146 
	C111.991920,93.299072 116.815422,100.661041 121.861168,108.362221 
	C121.093079,108.552536 119.933868,108.839767 117.948929,109.137680 
	C111.081688,108.773949 105.040184,108.399536 98.998672,108.025124 
	C99.900566,106.227516 100.802452,104.429901 102.122757,102.348701 
	C105.008430,100.755470 105.008430,100.755470 102.791649,97.849800 
	C103.643356,94.639374 104.331001,92.047356 105.018646,89.455338 
	C105.553886,88.387955 106.089127,87.320572 106.896400,86.095146 
z"/>
<path fill="#473B33" opacity="1.000000" stroke="none" 
	d="
M69.980209,103.232941 
	C69.539597,102.889481 69.098976,102.546028 68.362564,101.706398 
	C67.714027,99.807526 67.361290,98.404823 67.008553,97.002121 
	C66.958611,90.288605 68.072571,84.085518 74.991020,80.034531 
	C75.866730,79.656151 76.143723,79.408684 76.420715,79.161209 
	C77.042976,79.245117 77.665245,79.329025 78.873199,79.567993 
	C81.975464,81.819138 84.492020,83.915230 87.008575,86.011322 
	C87.025772,86.185608 87.042969,86.359886 87.202179,87.106339 
	C87.206558,88.118927 87.068916,88.559341 86.589569,88.917679 
	C83.871971,85.801208 81.320511,83.142700 76.803726,84.244614 
	C75.816231,84.110268 74.313286,83.939796 74.142914,84.338608 
	C72.622108,87.898460 70.973991,91.472595 70.084625,95.213974 
	C69.216110,98.867615 70.821045,101.042137 75.280838,100.314209 
	C78.767815,102.809723 81.680855,102.208038 84.544304,99.762596 
	C85.483109,98.960838 86.774651,98.572113 88.073380,98.369621 
	C88.494965,101.901749 86.890114,103.423157 83.870857,103.428391 
	C79.240768,103.436424 74.610435,103.305115 69.980209,103.232941 
z"/>
<path fill="#43342A" opacity="1.000000" stroke="none" 
	d="
M98.602737,108.051491 
	C105.040184,108.399536 111.081688,108.773949 117.562256,109.234085 
	C116.441010,110.152885 114.880707,110.985970 113.053062,111.960922 
	C107.573532,111.796318 102.362541,111.353401 97.148064,111.307648 
	C96.195839,111.299294 95.165154,112.849373 94.285019,113.787346 
	C93.049332,115.104233 91.920670,116.521538 90.746246,117.895905 
	C89.368164,116.705177 87.735756,115.700340 86.688637,114.267700 
	C85.772346,113.014053 85.513947,111.279533 85.407455,109.287468 
	C88.913124,108.585602 91.976250,108.353714 95.039368,108.121826 
	C96.095177,108.107170 97.150993,108.092514 98.602737,108.051491 
z"/>
<path fill="#EED7C7" opacity="1.000000" stroke="none" 
	d="
M94.797348,107.902504 
	C91.976250,108.353714 88.913124,108.585602 85.414642,108.905060 
	C84.705452,108.831833 84.468674,108.628006 84.032532,107.876221 
	C82.877533,106.914055 81.958954,106.456802 81.040375,105.999542 
	C77.472130,105.296387 73.903893,104.593224 70.157928,103.561501 
	C74.610435,103.305115 79.240768,103.436424 83.870857,103.428391 
	C86.890114,103.423157 88.494965,101.901749 88.095772,97.934570 
	C87.610214,94.416183 87.270744,91.707970 86.931274,88.999748 
	C87.068916,88.559341 87.206558,88.118927 87.345520,87.326469 
	C90.354088,90.087029 91.133873,98.730347 88.773666,103.035965 
	C88.315445,103.871887 87.761421,104.655289 86.741859,106.270378 
	C89.715721,106.808098 92.135529,107.245636 94.797348,107.902504 
z"/>
<path fill="#EED7C7" opacity="1.000000" stroke="none" 
	d="
M87.206238,85.744949 
	C84.492020,83.915230 81.975464,81.819138 79.186386,79.535019 
	C78.942848,77.551132 78.971832,75.755272 79.352386,73.501442 
	C81.695686,73.650360 83.687408,74.257240 85.679123,74.864128 
	C86.254051,78.402275 86.828979,81.940430 87.206238,85.744949 
z"/>
<path fill="#4E3D2E" opacity="1.000000" stroke="none" 
	d="
M104.648209,89.484665 
	C104.331001,92.047356 103.643356,94.639374 102.791649,97.849800 
	C105.008430,100.755470 105.008430,100.755470 102.267334,102.047150 
	C97.128075,98.809975 97.007996,98.118301 100.702515,93.564453 
	C101.836151,92.167152 103.082848,90.861572 104.648209,89.484665 
z"/>
<path fill="#3E2B22" opacity="1.000000" stroke="none" 
	d="
M85.731628,74.566544 
	C83.687408,74.257240 81.695686,73.650360 79.347488,73.053978 
	C78.592087,72.910332 78.193169,72.756195 77.134949,72.417099 
	C73.649841,71.822243 70.824028,71.412338 67.998222,71.002441 
	C67.998222,71.002441 68.000000,71.000000 67.961563,70.673996 
	C67.972504,69.912613 68.021881,69.477234 68.071251,69.041855 
	C68.071251,69.041855 68.011894,69.005898 68.463318,68.992020 
	C74.552917,70.340630 80.191086,71.703117 85.829254,73.065605 
	C85.814217,73.466728 85.799179,73.867844 85.731628,74.566544 
z"/>
<path fill="#EED7C7" opacity="1.000000" stroke="none" 
	d="
M86.046135,72.822342 
	C80.191086,71.703117 74.552917,70.340630 68.477219,69.023819 
	C68.269714,68.631790 68.387016,67.977226 68.747231,67.789993 
	C72.296150,65.945312 84.040428,68.200150 86.487823,71.202988 
	C86.682541,71.441910 86.350349,72.110283 86.046135,72.822342 
z"/>
<path fill="#F3DDCD" opacity="1.000000" stroke="none" 
	d="
M123.081207,129.549698 
	C120.920570,130.742218 118.350960,131.850571 115.390144,132.855591 
	C116.080833,128.211044 120.109131,130.548660 123.081207,129.549698 
z"/>
<path fill="#EED7C7" opacity="1.000000" stroke="none" 
	d="
M68.128723,71.339340 
	C70.824028,71.412338 73.649841,71.822243 76.812561,72.415459 
	C74.186058,72.291260 71.222641,71.983749 68.128723,71.339340 
z"/>
<path fill="#EED7C7" opacity="1.000000" stroke="none" 
	d="
M66.802269,97.274956 
	C67.361290,98.404823 67.714027,99.807526 68.118271,101.569260 
	C64.245735,101.689453 66.424629,99.257996 66.802269,97.274956 
z"/>
<path fill="#F0D8C5" opacity="1.000000" stroke="none" 
	d="
M106.690796,71.084579 
	C106.975616,71.757683 106.977013,72.518829 106.865692,73.646904 
	C106.637779,73.066757 106.522575,72.119690 106.690796,71.084579 
z"/>
<path fill="#F0D8C5" opacity="1.000000" stroke="none" 
	d="
M81.202774,106.265244 
	C81.958954,106.456802 82.877533,106.914055 83.898209,107.682983 
	C83.121933,107.506752 82.243553,107.018852 81.202774,106.265244 
z"/>
<path fill="#EED7C7" opacity="1.000000" stroke="none" 
	d="
M67.814911,69.093307 
	C68.021881,69.477234 67.972504,69.912613 67.960373,70.674866 
	C67.851257,70.382744 67.704910,69.763748 67.814911,69.093307 
z"/>
<path fill="#F0D8C5" opacity="1.000000" stroke="none" 
	d="
M106.452667,83.069351 
	C106.795418,83.426819 106.910484,83.871223 106.991425,84.660110 
	C106.713203,84.388496 106.469093,83.772392 106.452667,83.069351 
z"/>
<path fill="#F0D8C5" opacity="1.000000" stroke="none" 
	d="
M107.516792,65.018059 
	C107.729790,65.157784 107.772606,65.331947 107.735123,65.762917 
	C107.552086,65.697319 107.449348,65.374901 107.516792,65.018059 
z"/>
<path fill="#F3DDCD" opacity="1.000000" stroke="none" 
	d="
M124.729332,125.261276 
	C124.857300,125.667053 124.798119,126.329315 124.434677,127.173096 
	C124.267677,126.742332 124.404938,126.130051 124.729332,125.261276 
z"/>
<path fill="#3F342E" opacity="1.000000" stroke="none" 
	d="
M113.369255,133.457306 
	C112.800972,133.176346 112.486130,132.702942 112.171288,132.229538 
	C112.740532,132.244415 113.309769,132.259293 113.999062,132.570374 
	C113.953636,132.999344 113.788170,133.132095 113.369255,133.457306 
z"/>
<path fill="#221D1C" opacity="1.000000" stroke="none" 
	d="
M72.359268,42.147530 
	C72.571266,41.896183 73.087769,41.578854 73.896179,41.156990 
	C73.679993,41.395481 73.171890,41.738514 72.359268,42.147530 
z"/>
<path fill="#F3DDCD" opacity="1.000000" stroke="none" 
	d="
M123.901947,128.199844 
	C124.030945,128.330658 124.010498,128.674393 123.812019,129.225586 
	C123.673492,129.092941 123.712997,128.752853 123.901947,128.199844 
z"/>
<path fill="#EED7C7" opacity="1.000000" stroke="none" 
	d="
M76.164505,79.231590 
	C76.143723,79.408684 75.866730,79.656151 75.301712,79.886261 
	C75.311890,79.679916 75.610092,79.490936 76.164505,79.231590 
z"/>
<path fill="#9C111B" opacity="1.000000" stroke="none" 
	d="
M80.994804,135.557709 
	C74.999817,135.230698 70.169762,132.196671 66.038345,127.399155 
	C66.672882,127.079430 67.386337,127.089500 68.450485,127.144730 
	C72.821159,129.874939 76.841141,132.560013 80.994804,135.557709 
z"/>
<path fill="#FCA4B0" opacity="1.000000" stroke="none" 
	d="
M148.294373,173.865082 
	C147.805130,173.486099 147.584274,172.931564 147.151398,172.161194 
	C148.875748,171.067688 150.768509,170.030899 152.793320,169.475769 
	C153.114670,169.387680 154.738495,171.634003 154.532623,172.513824 
	C154.013901,174.730652 152.794235,176.783463 151.855515,178.901993 
	C151.324295,178.655441 150.793076,178.408890 150.261871,178.162338 
	C150.812408,176.570648 151.362961,174.978958 152.320343,172.211075 
	C150.521896,172.918701 149.542313,173.304138 148.294373,173.865082 
z"/>
<path fill="#3C3532" opacity="1.000000" stroke="none" 
	d="
M86.589569,88.917679 
	C87.270744,91.707970 87.610214,94.416183 87.927292,97.559464 
	C86.774651,98.572113 85.483109,98.960838 84.544304,99.762596 
	C81.680855,102.208038 78.767815,102.809723 75.276321,99.850136 
	C75.641594,94.252281 76.273926,89.362373 76.906258,84.472473 
	C81.320511,83.142700 83.871971,85.801208 86.589569,88.917679 
z"/>
<path fill="#F1EFEC" opacity="1.000000" stroke="none" 
	d="
M76.803726,84.244614 
	C76.273926,89.362373 75.641594,94.252281 75.013779,99.606247 
	C70.821045,101.042137 69.216110,98.867615 70.084625,95.213974 
	C70.973991,91.472595 72.622108,87.898460 74.142914,84.338608 
	C74.313286,83.939796 75.816231,84.110268 76.803726,84.244614 
z"/>
</svg>